{"title":"Bobby Valention ft Plies - Phone Number [KingPinVideos]","uid":5782074,"size":83039875,"categoryP":"video","categoryS":"music_videos","magnet":"?xt=urn:btih:13cb2a9851f76f9d75ec33e800c8bc3135fef5c0&amp;dn=Bobby+Valention+ft+Plies+-+Phone+Number+%5BKingPinVideos%5D&amp;tr=udp%3A%2F%2Ftracker.openbittorrent.com%3A80&amp;tr=udp%3A%2F%2Fopen.demonii.com%3A1337&amp;tr=udp%3A%2F%2Ftracker.coppersurfer.tk%3A6969&amp;tr=udp%3A%2F%2Fexodus.desync.com%3A6969","seeders":1,"leechers":0,"uploader":"KingPinMan","files":4,"time":1282457550,"description":"[img]http://a.imageshack.us/img651/1821/bobbyvnumber2.png[/img]\n\n[img]http://a.imageshack.us/img844/4849/bobbyvnumber3.png[/img]\n\n[code]\nGeneral\nComplete name                    : Bobby Valention ft Plies - Phone Number [KingPinVideos].mpg\nFormat                           : MPEG-PS\nFile size                        : 79.2 MiB\nDuration                         : 3mn 52s\nOverall bit rate                 : 2 858 Kbps\nWriting library                  : encoded by TMPGEnc 4.0 XPress Version. 4.7.4.299\n\nVideo\nID                               : 224 (0xE0)\nFormat                           : MPEG Video\nFormat version                   : Version 1\nFormat settings, BVOP            : Yes\nFormat settings, Matrix          : Default\nDuration                         : 3mn 52s\nBit rate mode                    : Constant\nBit rate                         : 2 617 Kbps\nNominal bit rate                 : 2 700 Kbps\nWidth                            : 384 pixels\nHeight                           : 208 pixels\nDisplay aspect ratio             : 16:9\nFrame rate                       : 29.970 fps\nResolution                       : 8 bits\nScan type                        : Progressive\nBits/(Pixel*Frame)               : 1.093\nStream size                      : 72.5 MiB (92%)\nWriting library                  : TMPGEnc XPress 4.7.4.299\n\nAudio\nID                               : 192 (0xC0)\nFormat                           : MPEG Audio\nFormat version                   : Version 1\nFormat profile                   : Layer 2\nDuration                         : 3mn 52s\nBit rate mode                    : Constant\nBit rate                         : 128 Kbps\nChannel(s)                       : 2 channels\nSampling rate                    : 48.0 KHz\nStream size                      : 3.55 MiB (4%)[/code]","torrent":{"xt":"urn:btih:13cb2a9851f76f9d75ec33e800c8bc3135fef5c0","amp;dn":"Bobby+Valention+ft+Plies+-+Phone+Number+%5BKingPinVideos%5D","amp;tr":["udp%3A%2F%2Ftracker.openbittorrent.com%3A80","udp%3A%2F%2Fopen.demonii.com%3A1337","udp%3A%2F%2Ftracker.coppersurfer.tk%3A6969","udp%3A%2F%2Fexodus.desync.com%3A6969"],"infoHash":"13cb2a9851f76f9d75ec33e800c8bc3135fef5c0","infoHashBuffer":{"type":"Buffer","data":[19,203,42,152,81,247,111,157,117,236,51,232,0,200,188,49,53,254,245,192]},"announce":[],"urlList":[]}}